<?xml version="1.0" encoding="UTF-8"?>
<svg width="156px" height="48px" viewBox="0 0 156 48" version="1.1" xmlns="http://www.w3.org/2000/svg" xmlns:xlink="http://www.w3.org/1999/xlink">
    <!-- Generator: Sketch 62 (91390) - https://sketch.com -->
    <title>ELIV-Logo-2</title>
    <desc>Created with Sketch.</desc>
    <g id="Page-1" stroke="none" stroke-width="1" fill="none" fill-rule="evenodd">
        <g id="ELIV-Logo-2" fill="#FFFFFF" fill-rule="nonzero">
            <path d="M34.6698113,8.5364283 L34.6698113,0 L4.93506036,0 C4.35656614,-0.00468814256 3.78290944,0.1072791 3.24753428,0.329524448 C2.74352549,0.540326551 2.28631468,0.851432445 1.90292794,1.24445241 C1.52147874,1.64179298 1.21555821,2.10703389 1.00050757,2.61684436 C0.783917555,3.14762957 0.673489814,3.71675081 0.675636242,4.29116254 L0.675636242,35.0784886 C0.615532831,37.0116249 1.02131187,38.9304595 1.85780692,40.6686985 C2.57825489,42.0817437 3.57998943,43.3279015 4.7996973,44.3284103 C5.93335156,45.2597024 7.23647157,45.9560427 8.63498384,46.377849 C9.87072057,46.7726083 11.1567141,46.9822055 12.452222,47 L34.6698113,47 L34.6698113,38.5186178 L12.5334398,38.5186178 C11.5948344,38.5786172 10.6726423,38.2482378 9.97959019,37.6036898 C9.34858993,36.9128304 9.02269944,35.9909938 9.07716982,35.0510408 L9.07716982,27.8231098 L27.2609401,27.8231098 L27.2609401,19.2319362 L9.10424243,19.2319362 L9.10424243,8.5364283 L34.6698113,8.5364283 Z" id="Path"></path>
            <path d="M74.6698113,46.9995126 L51.908469,46.9995126 C51.3338222,47.0082496 50.7633379,46.8994439 50.2311276,46.6796015 C49.2155893,46.2590215 48.4096224,45.4421195 47.9946724,44.4128027 C47.7746856,43.87402 47.6642648,43.2957723 47.6698113,42.7127037 L47.6698113,0 L56.0837865,0 L56.0837865,38.4807367 L74.6698113,38.4807367 L74.6698113,46.9995126 Z" id="Path"></path>
            <polygon id="Path" points="94.6698113 47 85.6698113 47 85.6698113 0 94.6698113 0"></polygon>
            <path d="M103.669811,0 L125.827918,45.6611573 C126.195684,46.3514915 126.736241,46.9323654 127.395666,47.345833 C128.074052,47.7723745 128.857038,47.9987754 129.656139,47.9997335 C130.458189,48.0088256 131.246002,47.7851393 131.925727,47.3550389 C132.590885,46.9503206 133.128311,46.3628243 133.475245,45.6611573 L155.669811,0 L103.669811,0 Z M129.665254,34.0617504 L117.606358,9.20587848 L117.487866,8.97573152 L141.851757,8.97573152 L129.665254,34.0617504 Z" id="Shape"></path>
        </g>
    </g>
</svg>